<?xml version="1.0" encoding="utf-8"?>
<!-- Generator: Adobe Illustrator 28.3.0, SVG Export Plug-In . SVG Version: 6.00 Build 0)  -->
<svg version="1.1" id="Layer_1" xmlns="http://www.w3.org/2000/svg" xmlns:xlink="http://www.w3.org/1999/xlink" x="0px" y="0px"
	 viewBox="0 0 150 114" style="enable-background:new 0 0 150 114;" xml:space="preserve">
<style type="text/css">
	.st0{fill:none;}
	.st1{display:none;}
	.st2{font-family:'TimesNewRomanPSMT';}
	.st3{font-size:150px;}
</style>
<path d="M69.1,12.4L42.14,64.04H69.1V12.4z M98.13,6.81c8.25,0,14.87,0.6,19.86,1.81c7.55,1.81,13.31,5.02,17.29,9.63
	c3.97,4.61,5.96,9.9,5.96,15.89c0,5.13-1.56,9.73-4.68,13.78c-3.12,4.05-7.73,7.06-13.82,9.02c7.1,1.51,12.41,3.93,15.93,7.25
	c4.88,4.63,7.32,10.29,7.32,16.99c0,5.08-1.61,9.95-4.83,14.61c-3.22,4.66-7.64,8.05-13.25,10.19c-5.61,2.14-14.18,3.21-25.71,3.21
	H54.22v-2.79h3.85c4.18,0,7.25-1.23,9.21-3.7c1.21-1.61,1.81-5.46,1.81-11.55V69.55H39.2l-9.36,17.59c-3.52,6.64-5.28,11-5.28,13.06
	c0,1.41,0.77,2.71,2.3,3.89c1.54,1.18,4.72,1.95,9.55,2.3v2.79H4.24v-2.79c2.21-0.05,4.11-0.53,5.7-1.43
	c1.59-0.91,3.31-2.54,5.17-4.91c1.86-2.37,4.23-6.22,7.1-11.55l31.11-58.21c3.88-7.2,5.81-12.05,5.81-14.57
	c0-1.61-0.68-2.87-2.04-3.77c-1.71-1.26-5.39-2.04-11.02-2.34V6.81H98.13z M83.18,52.87c1.86,0.35,3.99,0.62,6.38,0.79
	c2.39,0.18,5.02,0.26,7.89,0.26c7.35,0,12.87-0.79,16.57-2.38s6.53-4.01,8.49-7.29c1.96-3.27,2.94-6.84,2.94-10.72
	c0-5.99-2.44-11.1-7.32-15.33c-4.88-4.23-12-6.34-21.37-6.34c-5.03,0-9.56,0.55-13.59,1.66V52.87z M83.18,101.79
	c5.84,1.36,11.6,2.04,17.29,2.04c9.11,0,16.05-2.05,20.84-6.15c4.78-4.1,7.17-9.17,7.17-15.21c0-3.98-1.08-7.8-3.25-11.48
	c-2.16-3.67-5.69-6.57-10.57-8.68c-4.88-2.11-10.92-3.17-18.12-3.17c-3.12,0-5.79,0.05-8,0.15c-2.22,0.1-4,0.28-5.36,0.53V101.79z"
	/>
<rect x="-151.85" y="3.48" class="st0" width="181.85" height="166.02"/>
<text transform="matrix(1 0 0 1 -151.8496 107.7324)" class="st1 st2 st3">Æ</text>
</svg>
